<svg xmlns="http://www.w3.org/2000/svg" width="25" height="19.643" viewBox="0 0 25 19.643">
  <defs>
    <style>
      .cls-1 {
        fill: #fb6567;
      }
    </style>
  </defs>
  <path id="icons8_twitter" class="cls-1" d="M26,4.316a9.478,9.478,0,0,1-2.916.8A5.375,5.375,0,0,0,25.372,2.4,9.725,9.725,0,0,1,22.15,3.611,5.571,5.571,0,0,0,18.292,2a5.035,5.035,0,0,0-5.106,4.939,3.682,3.682,0,0,0,.1,1.109C7.92,8.048,4.237,5.02,1.739,2a4.206,4.206,0,0,0-.732,2.518A5.026,5.026,0,0,0,3.3,8.648a7.573,7.573,0,0,1-2.295-.6v.1a4.928,4.928,0,0,0,4.067,4.834,5.637,5.637,0,0,1-1.36.2,3.071,3.071,0,0,1-.935-.1A7.221,7.221,0,0,0,8.6,17.416a9.966,9.966,0,0,1-6.71,2.441H1a14.64,14.64,0,0,0,7.813,1.786A14.2,14.2,0,0,0,23.4,7.539v-.6A10.561,10.561,0,0,0,26,4.316" transform="translate(-1 -2)"/>
</svg>
