<svg width="1377" height="1024" viewBox="0 0 1377 1024" fill="none" xmlns="http://www.w3.org/2000/svg">
<g opacity="0.4" filter="url(#filter0_f_35_11361)">
<path d="M701.956 462.692L780.563 450.071L760.099 547.376L701.956 462.692Z" fill="url(#paint0_linear_35_11361)"/>
<path d="M874.109 632.823L912.621 615.186L915.957 667.972L874.109 632.823Z" fill="url(#paint1_linear_35_11361)"/>
<path d="M429.46 1007.44L483.801 1018.18L431.905 1098.67L429.46 1007.44Z" fill="url(#paint2_linear_35_11361)"/>
<path d="M581.445 676.296L552.854 647.861L598.815 627.255L581.445 676.296Z" fill="url(#paint3_linear_35_11361)"/>
<path d="M1049.26 452.446L1075.74 419.389L1102.43 465.066L1049.26 452.446Z" fill="url(#paint4_linear_35_11361)"/>
<path d="M948.01 465.066L920.945 489.912H951.26L948.01 465.066Z" fill="url(#paint5_linear_35_11361)"/>
<path d="M1054.94 1004.04L1101.97 945.344L1149.35 1026.45L1054.94 1004.04Z" fill="url(#paint6_linear_35_11361)"/>
<path d="M323.506 314.89L336.381 281.565L381.733 321.151L323.506 314.89Z" fill="url(#paint7_linear_35_11361)"/>
<path d="M352.62 199.622L378.653 166.113L400.672 203.438L352.62 199.622Z" fill="url(#paint8_linear_35_11361)"/>
<path d="M499.743 237.244L491.688 209.346L527.811 212.427L499.743 237.244Z" fill="url(#paint9_linear_35_11361)"/>
<path d="M731.183 260.054L765.158 216.299L793.904 265.029L731.183 260.054Z" fill="url(#paint10_linear_35_11361)"/>
<path d="M1341.55 496.144C1339.35 494.976 1337.14 493.808 1334.93 492.639C1334.04 492.062 1333.09 491.587 1332.1 491.226C1324.11 492.219 1316.03 492.096 1308.07 490.859C1304.89 490.342 1301.75 489.61 1298.67 488.668C1287.37 479.114 1283.88 466.691 1281.72 455.639C1279.5 443.937 1278.46 431.882 1270.59 420.166C1267.04 414.884 1262.35 410.453 1256.88 407.192C1249.1 402.542 1240.21 397.384 1231.73 394.133C1216.18 388.211 1201.43 391.759 1189.87 396.324C1178.3 400.889 1167.32 406.853 1152.95 406.754C1149.33 407.619 1145.52 407.262 1142.12 405.736C1141.87 405.646 1141.63 405.533 1141.4 405.397L1140.51 405.199C1136.51 401.198 1133.49 396.321 1131.69 390.953C1127.92 380.481 1127.45 369.358 1118.89 359.352C1113.24 352.78 1105.53 348.611 1097.69 344.371C1088.99 339.722 1080.41 334.789 1070.97 332.401C1053.16 327.906 1037.27 332.118 1024.33 337.969C1024.82 337.743 1032.72 342.52 1033.64 343.014C1034.56 343.509 1042.22 348.3 1043.02 347.933C1054.42 342.774 1067.8 338.944 1083.16 341.078C1086.84 341.61 1090.46 342.461 1093.99 343.622L1094.28 343.721C1099.16 347.546 1103.09 352.445 1105.76 358.038C1110.68 368.538 1110.44 379.35 1117.28 389.71C1120.8 395.052 1125.87 398.967 1132.02 402.302C1139.95 406.542 1148.33 411.912 1156.91 414.513C1191.12 424.872 1207.79 397.313 1239.9 401.482C1241.8 401.742 1243.69 402.129 1245.55 402.641L1246.21 403.277C1251.02 408.05 1254.75 413.8 1257.14 420.138C1261.87 432.023 1261.89 443.542 1265.41 455.357C1267.25 462.089 1270.51 468.352 1274.96 473.73C1280.8 480.57 1288.68 484.668 1296.89 489.064C1305.78 493.812 1314.09 498.321 1323.75 500.37C1332.66 502.119 1341.79 502.434 1350.8 501.303C1349.67 501.331 1342.94 496.879 1341.55 496.144Z" fill="url(#paint11_linear_35_11361)"/>
<path d="M833.731 209.431L798.031 218.023L824.53 232.736L833.731 209.431Z" fill="url(#paint12_linear_35_11361)"/>
<path d="M509.749 342.082L566.818 365.415L514.06 421.508L509.749 342.082Z" fill="url(#paint13_linear_35_11361)"/>
<path d="M57.5392 964.904L72.8027 1004.42L19.9033 1004.53L57.5392 964.904Z" fill="url(#paint14_linear_35_11361)"/>
<path d="M581.445 676.296L552.854 647.861L598.815 627.255L581.445 676.296Z" fill="url(#paint15_linear_35_11361)"/>
<path d="M952.688 226.517L979.173 193.46L1005.86 239.137L952.688 226.517Z" fill="url(#paint16_linear_35_11361)"/>
<path d="M58.302 562.23L49.2569 526.629L34.8838 553.312L58.302 562.23Z" fill="url(#paint17_linear_35_11361)"/>
<path d="M956.037 821.752L927.022 817.569L944.886 785.614L956.037 821.752Z" fill="url(#paint18_linear_35_11361)"/>
<path d="M769.145 873.322L820.532 894.013L781.539 935.012L769.145 873.322Z" fill="url(#paint19_linear_35_11361)"/>
<path d="M1178.63 237.329L1187.97 185.829L1264.15 230.305L1178.63 237.329Z" fill="url(#paint20_linear_35_11361)"/>
<path d="M186.968 124.647L143.382 191.694L96.1504 125.086L186.968 124.647Z" fill="url(#paint21_linear_35_11361)"/>
<path d="M499.743 237.244L491.688 209.346L527.811 212.427L499.743 237.244Z" fill="url(#paint22_linear_35_11361)"/>
<path d="M567.666 70.9847L618.248 48.3862L621.823 131.629L567.666 70.9847Z" fill="url(#paint23_linear_35_11361)"/>
<path d="M265.901 647.86L225.354 685.1H270.777L265.901 647.86Z" fill="url(#paint24_linear_35_11361)"/>
<path d="M833.731 209.431L798.031 218.023L824.53 232.736L833.731 209.431Z" fill="url(#paint25_linear_35_11361)"/>
<path d="M1274.81 590.792L1270.96 560.858L1307.58 569.776L1274.81 590.792Z" fill="url(#paint26_linear_35_11361)"/>
<path d="M361.552 511.789L391.74 512.128L377.833 547.164L361.552 511.789Z" fill="url(#paint27_linear_35_11361)"/>
<path d="M1001.19 627.185L1035.63 607.907L1040.98 647.861L1001.19 627.185Z" fill="url(#paint28_linear_35_11361)"/>
<path d="M199.01 393.13L202.402 364.596L234.144 381.329L199.01 393.13Z" fill="url(#paint29_linear_35_11361)"/>
<path d="M879.945 335.581L910.119 335.92L896.212 370.955L879.945 335.581Z" fill="url(#paint30_linear_35_11361)"/>
<path d="M856.089 80.2418L830.269 75.9878L843.582 92.9897L856.089 80.2418Z" fill="url(#paint31_linear_35_11361)"/>
<path d="M1153.94 835.955L1188.38 816.678L1193.72 856.631L1153.94 835.955Z" fill="url(#paint32_linear_35_11361)"/>
<path d="M1286.22 731.655L1298.51 709.354L1326.73 741.661L1286.22 731.655Z" fill="url(#paint33_linear_35_11361)"/>
<path d="M763.604 769.022L780.422 745.717L800.066 775.749L763.604 769.022Z" fill="url(#paint34_linear_35_11361)"/>
<path d="M706.281 370.008L678.468 347.975L683.061 376.891L706.281 370.008Z" fill="url(#paint35_linear_35_11361)"/>
<path d="M85.7202 318.324L59.8994 314.07L73.2126 331.072L85.7202 318.324Z" fill="url(#paint36_linear_35_11361)"/>
<path d="M1231.64 39.0443L1211.14 22.7915L1214.53 44.118L1231.64 39.0443Z" fill="url(#paint37_linear_35_11361)"/>
<path d="M238.483 584.122C239.274 582.553 240.051 580.999 240.772 579.486C243.515 573.526 244.52 566.913 243.669 560.407C242.143 546.839 234.455 536.565 227.812 525.145C224.406 519.28 221.424 512.836 221.509 505.896C221.53 504.602 221.658 503.312 221.891 502.038C223.825 500.125 225.93 498.394 228.18 496.865C242.468 487.199 261.01 482.733 277.758 479.567C278.804 479.383 281.235 473.603 281.8 472.613C282.733 470.96 283.665 469.306 284.626 467.653C284.917 466.919 285.291 466.222 285.743 465.575C270.423 468.402 254.269 472.529 240.518 480.16C234.445 483.299 229.215 487.85 225.268 493.431C224.449 494.689 223.685 495.989 222.922 497.289C222.484 496.215 217.184 506.038 217.99 506.066C216.515 508.461 215.329 511.023 214.457 513.698C210.683 526.559 219.163 538.204 225.636 548.521C232.434 559.361 237.663 572.067 235.458 585.111C235.331 585.804 235.19 586.524 235.034 587.203C233.813 588.422 232.489 589.533 231.077 590.524C225.657 594.055 219.582 596.459 213.213 597.591C200.493 600.219 187.208 599.47 174.461 602.41C168.089 603.69 162.047 606.263 156.71 609.971C150.788 614.38 147.622 620.797 144.075 627.086C140.98 632.569 138.125 637.728 137.461 644.045C137.076 650.051 137.614 656.081 139.058 661.923C142.096 676.593 146.124 690.345 142.52 705.354C141.806 708.348 140.861 711.282 139.694 714.13C139.199 714.809 138.676 715.544 138.139 716.137C133.207 722.169 127.137 727.172 120.275 730.864C119.786 731.483 119.378 732.162 119.06 732.885C118.099 734.524 117.166 736.178 116.233 737.831C115.3 739.485 114.353 741.124 113.407 742.792C113.166 743.216 112.657 744.657 112.29 744.869C123.526 738.82 130.889 729.832 137.277 719.43C136.895 720.674 143.368 709.452 142.563 710.159C148.216 699.446 152.456 688.536 152.06 675.929C151.664 663.323 146.576 651.098 145.446 638.42C145.063 634.273 145.359 630.092 146.322 626.04C146.845 625.56 147.382 625.107 147.933 624.627C150.501 622.626 153.318 620.968 156.314 619.694C168.581 614.366 181.965 614.522 195.024 613.137C207.602 611.794 221.608 608.897 229.819 598.311C231.897 595.619 233.786 592.786 235.472 589.832C236.575 587.782 237.988 585.394 238.483 584.122ZM143.439 629.107C143.891 628.542 144.358 628.004 144.852 627.482L145.375 626.959C142.676 632.372 140.966 632.145 143.439 629.107Z" fill="url(#paint38_linear_35_11361)"/>
<path d="M282.719 -4.88075C282.097 -20.0595 277.32 -34.2065 267.031 -45.4846C261.308 -51.7596 255.725 -59.1087 248.461 -63.8573C242.746 -67.3888 236.22 -69.3937 229.509 -69.68C216.012 -70.5563 202.755 -66.6415 189.4 -65.4402C182.474 -64.8325 174.97 -64.6629 168.44 -67.3764C167.208 -70.5251 166.326 -73.8002 165.812 -77.1422C163.367 -92.2503 167.578 -107.627 164.512 -122.678C163.098 -129.674 159.777 -134.932 155.297 -140.076C156.71 -139.779 146.266 -150.972 145.319 -151.001C141.811 -154.78 137.511 -157.739 132.727 -159.664C115.004 -166.165 97.3944 -156.753 83.1768 -146.563C83.7279 -146.945 95.7974 -131.596 96.5747 -132.162C109.294 -141.362 124.473 -149.842 140.797 -146.733C143.649 -146.196 146.419 -145.288 149.036 -144.033C151.136 -138.477 152.218 -132.589 152.23 -126.65C152.739 -111.104 148.881 -94.5539 155.876 -79.8133C159.466 -72.2664 166.476 -66.2175 172.129 -60.2817C177.067 -54.7371 183.984 -51.3522 191.392 -50.855C205.073 -49.7527 218.584 -53.8371 232.137 -55.0949C238.603 -55.8522 245.152 -55.4695 251.485 -53.9643C254.678 -53.1308 257.741 -51.861 260.587 -50.1908L261.265 -49.7809C268.431 -37.2309 269.66 -22.5469 269.307 -8.31503C268.968 5.4928 267.484 20.0921 272.133 33.4052C274.96 41.6164 280.5 47.5381 286.266 53.7142C292.513 60.4273 298.293 66.8295 306.9 70.5182C324.566 78.0934 344.027 74.0938 362.019 70.2214C361.298 70.3768 356.097 63.7061 355.39 62.9571C354.684 62.2081 349.737 55.5797 348.621 55.82C332.693 59.2401 315.917 62.8158 299.82 58.3498C296.208 57.3474 292.726 55.9244 289.446 54.1099C288.867 53.7849 288.301 53.4457 287.75 53.1065C285.454 48.4644 283.922 43.4821 283.214 38.3517C281.065 24.0351 283.313 9.52065 282.719 -4.88075ZM261.845 -49.3993C263.056 -48.6106 264.218 -47.7468 265.321 -46.813C269.448 -43.3505 268.275 -41.0751 261.845 -49.3993ZM289.729 56.5973C289.206 55.7917 288.711 54.9579 288.316 54.1241C293.672 59.1695 292.513 60.7948 289.729 56.5408V56.5973Z" fill="url(#paint39_linear_35_11361)"/>
<path d="M600.665 898.027C597.401 881.987 588.737 867.317 586.942 850.937C586.596 847.875 586.596 844.784 586.942 841.722C590.86 838.165 595.429 835.401 600.397 833.581C613.385 828.522 627.546 827.476 640.661 822.77C647.066 820.671 652.933 817.193 657.847 812.58C665.196 805.259 669.365 794.207 673.591 784.992C681.067 768.74 677.195 749.519 669.04 734.27C664.094 725.012 656.646 716.83 654.257 706.371C653.271 701.944 653.237 697.358 654.158 692.917C654.427 692.578 654.681 692.224 654.978 691.899C669.535 675.123 692.741 671.166 713.531 667.718C714.718 667.52 717.629 659.719 718.209 658.546C719.292 656.369 720.366 654.193 721.431 652.016C721.762 651.062 722.188 650.144 722.703 649.274C704.33 652.313 684.177 655.578 669.535 668.099C662.115 674.445 657.847 682.43 653.551 691.023C649.254 699.616 644.435 707.869 644.308 717.522C644.181 727.175 649.014 735.358 654.059 743.216C659.105 751.074 663.5 759.002 666.016 768.047C668.487 776.293 669.043 784.993 667.641 793.486C665.483 795.722 663.057 797.682 660.419 799.323C638.457 813.06 603.266 806.319 589.599 832.182L588.624 834.005C588.412 832.705 583.112 843.248 581.968 846.64C579.977 850.684 578.592 854.998 577.855 859.445C576.781 867.062 578.378 874.779 580.526 882.057C585.006 897.25 592.61 911.835 592.737 927.989C592.764 935.362 591.565 942.689 589.19 949.669C588.737 950.347 588.271 951.011 587.776 951.676C585.259 955.137 582.465 958.389 579.424 961.399C567.524 973.144 551.921 980.761 535.131 981.524C534.17 981.524 530.891 989.693 530.453 990.711C530.015 991.728 526.863 999.925 525.959 999.968C540.911 999.128 555.149 993.296 566.393 983.404C579.918 971.759 587.423 955.803 594.843 939.903C600.92 926.844 603.563 912.302 600.665 898.027ZM670.934 789.402C670.29 790.338 669.597 791.239 668.857 792.101C668.673 792.313 668.475 792.525 668.291 792.751C671.867 783.791 674.538 784.187 670.934 789.402Z" fill="url(#paint40_linear_35_11361)"/>
<path d="M324.353 780.568L363.205 823.956L295.226 849.834L324.353 780.568Z" fill="url(#paint41_linear_35_11361)"/>
<path d="M709.418 25.9147L680.403 21.7313L698.267 -10.2231L709.418 25.9147Z" fill="url(#paint42_linear_35_11361)"/>
</g>
<defs>
<filter id="filter0_f_35_11361" x="0" y="-1713" width="1376.17" height="2818.67" filterUnits="userSpaceOnUse" color-interpolation-filters="sRGB">
<feFlood flood-opacity="0" result="BackgroundImageFix"/>
<feBlend mode="normal" in="SourceGraphic" in2="BackgroundImageFix" result="shape"/>
<feGaussianBlur stdDeviation="3.5" result="effect1_foregroundBlur_35_11361"/>
</filter>
<linearGradient id="paint0_linear_35_11361" x1="701.956" y1="498.731" x2="780.563" y2="498.731" gradientUnits="userSpaceOnUse">
<stop offset="0.01" stop-color="#FFF2A6"/>
<stop offset="1" stop-color="#CE8704"/>
</linearGradient>
<linearGradient id="paint1_linear_35_11361" x1="881.834" y1="623.392" x2="929.153" y2="647.317" gradientUnits="userSpaceOnUse">
<stop offset="0.01" stop-color="#A89100"/>
<stop offset="0.08" stop-color="#BDA10F"/>
<stop offset="0.2" stop-color="#D9B824"/>
<stop offset="0.32" stop-color="#EEC933"/>
<stop offset="0.44" stop-color="#FBD33C"/>
<stop offset="0.56" stop-color="#FFD63F"/>
<stop offset="0.64" stop-color="#FAD23C"/>
<stop offset="0.74" stop-color="#EDC832"/>
<stop offset="0.85" stop-color="#D7B622"/>
<stop offset="0.95" stop-color="#B89D0B"/>
<stop offset="1" stop-color="#A89100"/>
</linearGradient>
<linearGradient id="paint2_linear_35_11361" x1="-87166" y1="-237534" x2="-87310.8" y2="-234036" gradientUnits="userSpaceOnUse">
<stop offset="0.01" stop-color="#FFF2A6"/>
<stop offset="1" stop-color="#CE8704"/>
</linearGradient>
<linearGradient id="paint3_linear_35_11361" x1="22236.4" y1="37361" x2="23730.5" y2="37361" gradientUnits="userSpaceOnUse">
<stop offset="0.01" stop-color="#A89100"/>
<stop offset="0.08" stop-color="#BDA10F"/>
<stop offset="0.2" stop-color="#D9B824"/>
<stop offset="0.32" stop-color="#EEC933"/>
<stop offset="0.44" stop-color="#FBD33C"/>
<stop offset="0.56" stop-color="#FFD63F"/>
<stop offset="0.64" stop-color="#FAD23C"/>
<stop offset="0.74" stop-color="#EDC832"/>
<stop offset="0.85" stop-color="#D7B622"/>
<stop offset="0.95" stop-color="#B89D0B"/>
<stop offset="1" stop-color="#A89100"/>
</linearGradient>
<linearGradient id="paint4_linear_35_11361" x1="44808" y1="27861.1" x2="46808.2" y2="27861.1" gradientUnits="userSpaceOnUse">
<stop offset="0.01" stop-color="#FFF2A6"/>
<stop offset="1" stop-color="#CE8704"/>
</linearGradient>
<linearGradient id="paint5_linear_35_11361" x1="920.945" y1="477.489" x2="951.26" y2="477.489" gradientUnits="userSpaceOnUse">
<stop offset="0.16" stop-color="#F6C52F"/>
<stop offset="0.89" stop-color="#D49A00"/>
</linearGradient>
<linearGradient id="paint6_linear_35_11361" x1="79134.8" y1="80873.9" x2="85441.2" y2="80873.9" gradientUnits="userSpaceOnUse">
<stop offset="0.01" stop-color="#A89100"/>
<stop offset="0.08" stop-color="#BDA10F"/>
<stop offset="0.2" stop-color="#D9B824"/>
<stop offset="0.32" stop-color="#EEC933"/>
<stop offset="0.44" stop-color="#FBD33C"/>
<stop offset="0.56" stop-color="#FFD63F"/>
<stop offset="0.64" stop-color="#FAD23C"/>
<stop offset="0.74" stop-color="#EDC832"/>
<stop offset="0.85" stop-color="#D7B622"/>
<stop offset="0.95" stop-color="#B89D0B"/>
<stop offset="1" stop-color="#A89100"/>
</linearGradient>
<linearGradient id="paint7_linear_35_11361" x1="18345.5" y1="20117.8" x2="20744.5" y2="20117.8" gradientUnits="userSpaceOnUse">
<stop offset="0.16" stop-color="#F6C52F"/>
<stop offset="0.89" stop-color="#D49A00"/>
</linearGradient>
<linearGradient id="paint8_linear_35_11361" x1="-34403.6" y1="-32790.8" x2="-33099.7" y2="-32067.4" gradientUnits="userSpaceOnUse">
<stop offset="0.01" stop-color="#FFF2A6"/>
<stop offset="1" stop-color="#CE8704"/>
</linearGradient>
<linearGradient id="paint9_linear_35_11361" x1="490.382" y1="211.826" x2="519.314" y2="227.876" gradientUnits="userSpaceOnUse">
<stop stop-color="#8C6034"/>
<stop offset="0.32" stop-color="#AE813F"/>
<stop offset="0.71" stop-color="#DCAE4E"/>
<stop offset="1" stop-color="#A67033"/>
</linearGradient>
<linearGradient id="paint10_linear_35_11361" x1="-28776.4" y1="-39575.2" x2="-26554" y2="-38342.3" gradientUnits="userSpaceOnUse">
<stop offset="0.01" stop-color="#FFF2A6"/>
<stop offset="1" stop-color="#CE8704"/>
</linearGradient>
<linearGradient id="paint11_linear_35_11361" x1="910730" y1="-276294" x2="916746" y2="-287541" gradientUnits="userSpaceOnUse">
<stop offset="0.01" stop-color="#A89100"/>
<stop offset="0.08" stop-color="#BDA10F"/>
<stop offset="0.2" stop-color="#D9B824"/>
<stop offset="0.32" stop-color="#EEC933"/>
<stop offset="0.44" stop-color="#FBD33C"/>
<stop offset="0.56" stop-color="#FFD63F"/>
<stop offset="0.64" stop-color="#FAD23C"/>
<stop offset="0.74" stop-color="#EDC832"/>
<stop offset="0.85" stop-color="#D7B622"/>
<stop offset="0.95" stop-color="#B89D0B"/>
<stop offset="1" stop-color="#A89100"/>
</linearGradient>
<linearGradient id="paint12_linear_35_11361" x1="-25010" y1="-11084.7" x2="-24244.6" y2="-11084.7" gradientUnits="userSpaceOnUse">
<stop stop-color="#8C6034"/>
<stop offset="0.32" stop-color="#AE813F"/>
<stop offset="0.71" stop-color="#DCAE4E"/>
<stop offset="1" stop-color="#A67033"/>
</linearGradient>
<linearGradient id="paint13_linear_35_11361" x1="-50539.9" y1="-188806" x2="-49654.4" y2="-185809" gradientUnits="userSpaceOnUse">
<stop offset="0.01" stop-color="#A89100"/>
<stop offset="0.08" stop-color="#BDA10F"/>
<stop offset="0.2" stop-color="#D9B824"/>
<stop offset="0.32" stop-color="#EEC933"/>
<stop offset="0.44" stop-color="#FBD33C"/>
<stop offset="0.56" stop-color="#FFD63F"/>
<stop offset="0.64" stop-color="#FAD23C"/>
<stop offset="0.74" stop-color="#EDC832"/>
<stop offset="0.85" stop-color="#D7B622"/>
<stop offset="0.95" stop-color="#B89D0B"/>
<stop offset="1" stop-color="#A89100"/>
</linearGradient>
<linearGradient id="paint14_linear_35_11361" x1="62021.9" y1="-292912" x2="61022" y2="-291191" gradientUnits="userSpaceOnUse">
<stop offset="0.01" stop-color="#A89100"/>
<stop offset="0.08" stop-color="#BDA10F"/>
<stop offset="0.2" stop-color="#D9B824"/>
<stop offset="0.32" stop-color="#EEC933"/>
<stop offset="0.44" stop-color="#FBD33C"/>
<stop offset="0.56" stop-color="#FFD63F"/>
<stop offset="0.64" stop-color="#FAD23C"/>
<stop offset="0.74" stop-color="#EDC832"/>
<stop offset="0.85" stop-color="#D7B622"/>
<stop offset="0.95" stop-color="#B89D0B"/>
<stop offset="1" stop-color="#A89100"/>
</linearGradient>
<linearGradient id="paint15_linear_35_11361" x1="22236.4" y1="37361" x2="23730.5" y2="37361" gradientUnits="userSpaceOnUse">
<stop offset="0.01" stop-color="#A89100"/>
<stop offset="0.08" stop-color="#BDA10F"/>
<stop offset="0.2" stop-color="#D9B824"/>
<stop offset="0.32" stop-color="#EEC933"/>
<stop offset="0.44" stop-color="#FBD33C"/>
<stop offset="0.56" stop-color="#FFD63F"/>
<stop offset="0.64" stop-color="#FAD23C"/>
<stop offset="0.74" stop-color="#EDC832"/>
<stop offset="0.85" stop-color="#D7B622"/>
<stop offset="0.95" stop-color="#B89D0B"/>
<stop offset="1" stop-color="#A89100"/>
</linearGradient>
<linearGradient id="paint16_linear_35_11361" x1="41078.5" y1="20333.1" x2="43078.7" y2="20333.1" gradientUnits="userSpaceOnUse">
<stop offset="0.01" stop-color="#FFF2A6"/>
<stop offset="1" stop-color="#CE8704"/>
</linearGradient>
<linearGradient id="paint17_linear_35_11361" x1="-4276.31" y1="-138548" x2="-4512.29" y2="-138106" gradientUnits="userSpaceOnUse">
<stop offset="0.01" stop-color="#FFF2A6"/>
<stop offset="1" stop-color="#CE8704"/>
</linearGradient>
<linearGradient id="paint18_linear_35_11361" x1="207072" y1="-92833.8" x2="206689" y2="-93484.8" gradientUnits="userSpaceOnUse">
<stop offset="0.01" stop-color="#FFF2A6"/>
<stop offset="1" stop-color="#CE8704"/>
</linearGradient>
<linearGradient id="paint19_linear_35_11361" x1="-33883.1" y1="-243114" x2="-34355.4" y2="-241086" gradientUnits="userSpaceOnUse">
<stop offset="0.01" stop-color="#A89100"/>
<stop offset="0.08" stop-color="#BDA10F"/>
<stop offset="0.2" stop-color="#D9B824"/>
<stop offset="0.32" stop-color="#EEC933"/>
<stop offset="0.44" stop-color="#FBD33C"/>
<stop offset="0.56" stop-color="#FFD63F"/>
<stop offset="0.64" stop-color="#FAD23C"/>
<stop offset="0.74" stop-color="#EDC832"/>
<stop offset="0.85" stop-color="#D7B622"/>
<stop offset="0.95" stop-color="#B89D0B"/>
<stop offset="1" stop-color="#A89100"/>
</linearGradient>
<linearGradient id="paint20_linear_35_11361" x1="119346" y1="25645.5" x2="124415" y2="24674.9" gradientUnits="userSpaceOnUse">
<stop offset="0.16" stop-color="#F6C52F"/>
<stop offset="0.89" stop-color="#D49A00"/>
</linearGradient>
<linearGradient id="paint21_linear_35_11361" x1="437271" y1="-234944" x2="432426" y2="-237121" gradientUnits="userSpaceOnUse">
<stop offset="0.01" stop-color="#FFF2A6"/>
<stop offset="1" stop-color="#CE8704"/>
</linearGradient>
<linearGradient id="paint22_linear_35_11361" x1="490.382" y1="211.826" x2="519.314" y2="227.876" gradientUnits="userSpaceOnUse">
<stop stop-color="#8C6034"/>
<stop offset="0.32" stop-color="#AE813F"/>
<stop offset="0.71" stop-color="#DCAE4E"/>
<stop offset="1" stop-color="#A67033"/>
</linearGradient>
<linearGradient id="paint23_linear_35_11361" x1="26686.1" y1="29312.4" x2="28760.9" y2="29312.4" gradientUnits="userSpaceOnUse">
<stop offset="0.01" stop-color="#A89100"/>
<stop offset="0.08" stop-color="#BDA10F"/>
<stop offset="0.2" stop-color="#D9B824"/>
<stop offset="0.32" stop-color="#EEC933"/>
<stop offset="0.44" stop-color="#FBD33C"/>
<stop offset="0.56" stop-color="#FFD63F"/>
<stop offset="0.64" stop-color="#FAD23C"/>
<stop offset="0.74" stop-color="#EDC832"/>
<stop offset="0.85" stop-color="#D7B622"/>
<stop offset="0.95" stop-color="#B89D0B"/>
<stop offset="1" stop-color="#A89100"/>
</linearGradient>
<linearGradient id="paint24_linear_35_11361" x1="11129.6" y1="28929.9" x2="12589.5" y2="28929.9" gradientUnits="userSpaceOnUse">
<stop offset="0.16" stop-color="#F6C52F"/>
<stop offset="0.89" stop-color="#D49A00"/>
</linearGradient>
<linearGradient id="paint25_linear_35_11361" x1="-25010" y1="-11084.7" x2="-24244.6" y2="-11084.7" gradientUnits="userSpaceOnUse">
<stop stop-color="#8C6034"/>
<stop offset="0.32" stop-color="#AE813F"/>
<stop offset="0.71" stop-color="#DCAE4E"/>
<stop offset="1" stop-color="#A67033"/>
</linearGradient>
<linearGradient id="paint26_linear_35_11361" x1="114513" y1="12907.5" x2="115190" y2="12200.7" gradientUnits="userSpaceOnUse">
<stop offset="0.01" stop-color="#A89100"/>
<stop offset="0.08" stop-color="#BDA10F"/>
<stop offset="0.2" stop-color="#D9B824"/>
<stop offset="0.32" stop-color="#EEC933"/>
<stop offset="0.44" stop-color="#FBD33C"/>
<stop offset="0.56" stop-color="#FFD63F"/>
<stop offset="0.64" stop-color="#FAD23C"/>
<stop offset="0.74" stop-color="#EDC832"/>
<stop offset="0.85" stop-color="#D7B622"/>
<stop offset="0.95" stop-color="#B89D0B"/>
<stop offset="1" stop-color="#A89100"/>
</linearGradient>
<linearGradient id="paint27_linear_35_11361" x1="-44039" y1="-44801.5" x2="-43537.4" y2="-44162.4" gradientUnits="userSpaceOnUse">
<stop offset="0.01" stop-color="#FFF2A6"/>
<stop offset="1" stop-color="#CE8704"/>
</linearGradient>
<linearGradient id="paint28_linear_35_11361" x1="-39037.9" y1="-57404.8" x2="-38325.8" y2="-56497.4" gradientUnits="userSpaceOnUse">
<stop offset="0.01" stop-color="#A89100"/>
<stop offset="0.08" stop-color="#BDA10F"/>
<stop offset="0.2" stop-color="#D9B824"/>
<stop offset="0.32" stop-color="#EEC933"/>
<stop offset="0.44" stop-color="#FBD33C"/>
<stop offset="0.56" stop-color="#FFD63F"/>
<stop offset="0.64" stop-color="#FAD23C"/>
<stop offset="0.74" stop-color="#EDC832"/>
<stop offset="0.85" stop-color="#D7B622"/>
<stop offset="0.95" stop-color="#B89D0B"/>
<stop offset="1" stop-color="#A89100"/>
</linearGradient>
<linearGradient id="paint29_linear_35_11361" x1="-53819.7" y1="-58005.8" x2="-53315" y2="-57362.7" gradientUnits="userSpaceOnUse">
<stop offset="0.01" stop-color="#A89100"/>
<stop offset="0.08" stop-color="#BDA10F"/>
<stop offset="0.2" stop-color="#D9B824"/>
<stop offset="0.32" stop-color="#EEC933"/>
<stop offset="0.44" stop-color="#FBD33C"/>
<stop offset="0.56" stop-color="#FFD63F"/>
<stop offset="0.64" stop-color="#FAD23C"/>
<stop offset="0.74" stop-color="#EDC832"/>
<stop offset="0.85" stop-color="#D7B622"/>
<stop offset="0.95" stop-color="#B89D0B"/>
<stop offset="1" stop-color="#A89100"/>
</linearGradient>
<linearGradient id="paint30_linear_35_11361" x1="-30947.1" y1="-49446.2" x2="-30445.7" y2="-48807.4" gradientUnits="userSpaceOnUse">
<stop offset="0.01" stop-color="#A89100"/>
<stop offset="0.08" stop-color="#BDA10F"/>
<stop offset="0.2" stop-color="#D9B824"/>
<stop offset="0.32" stop-color="#EEC933"/>
<stop offset="0.44" stop-color="#FBD33C"/>
<stop offset="0.56" stop-color="#FFD63F"/>
<stop offset="0.64" stop-color="#FAD23C"/>
<stop offset="0.74" stop-color="#EDC832"/>
<stop offset="0.85" stop-color="#D7B622"/>
<stop offset="0.95" stop-color="#B89D0B"/>
<stop offset="1" stop-color="#A89100"/>
</linearGradient>
<linearGradient id="paint31_linear_35_11361" x1="-29422.9" y1="-44682.4" x2="-29178.2" y2="-44370.7" gradientUnits="userSpaceOnUse">
<stop offset="0.16" stop-color="#F6C52F"/>
<stop offset="0.89" stop-color="#D49A00"/>
</linearGradient>
<linearGradient id="paint32_linear_35_11361" x1="-34784.5" y1="-51257.4" x2="-34072.4" y2="-50350" gradientUnits="userSpaceOnUse">
<stop offset="0.01" stop-color="#FFF2A6"/>
<stop offset="1" stop-color="#CE8704"/>
</linearGradient>
<linearGradient id="paint33_linear_35_11361" x1="29723.4" y1="19353.3" x2="30900.4" y2="19507.8" gradientUnits="userSpaceOnUse">
<stop offset="0.16" stop-color="#F6C52F"/>
<stop offset="0.89" stop-color="#D49A00"/>
</linearGradient>
<linearGradient id="paint34_linear_35_11361" x1="-29413.8" y1="-104757" x2="-29278.6" y2="-103920" gradientUnits="userSpaceOnUse">
<stop stop-color="#8C6034"/>
<stop offset="0.32" stop-color="#AE813F"/>
<stop offset="0.71" stop-color="#DCAE4E"/>
<stop offset="1" stop-color="#A67033"/>
</linearGradient>
<linearGradient id="paint35_linear_35_11361" x1="-26016.1" y1="-86108.7" x2="-25923.9" y2="-85538.2" gradientUnits="userSpaceOnUse">
<stop offset="0.16" stop-color="#F6C52F"/>
<stop offset="0.89" stop-color="#D49A00"/>
</linearGradient>
<linearGradient id="paint36_linear_35_11361" x1="-40504.1" y1="-43673.5" x2="-40259.4" y2="-43361.8" gradientUnits="userSpaceOnUse">
<stop offset="0.01" stop-color="#A89100"/>
<stop offset="0.08" stop-color="#BDA10F"/>
<stop offset="0.2" stop-color="#D9B824"/>
<stop offset="0.32" stop-color="#EEC933"/>
<stop offset="0.44" stop-color="#FBD33C"/>
<stop offset="0.56" stop-color="#FFD63F"/>
<stop offset="0.64" stop-color="#FAD23C"/>
<stop offset="0.74" stop-color="#EDC832"/>
<stop offset="0.85" stop-color="#D7B622"/>
<stop offset="0.95" stop-color="#B89D0B"/>
<stop offset="1" stop-color="#A89100"/>
</linearGradient>
<linearGradient id="paint37_linear_35_11361" x1="-10379.4" y1="-66253.3" x2="-10329.3" y2="-65943.1" gradientUnits="userSpaceOnUse">
<stop offset="0.01" stop-color="#A89100"/>
<stop offset="0.08" stop-color="#BDA10F"/>
<stop offset="0.2" stop-color="#D9B824"/>
<stop offset="0.32" stop-color="#EEC933"/>
<stop offset="0.44" stop-color="#FBD33C"/>
<stop offset="0.56" stop-color="#FFD63F"/>
<stop offset="0.64" stop-color="#FAD23C"/>
<stop offset="0.74" stop-color="#EDC832"/>
<stop offset="0.85" stop-color="#D7B622"/>
<stop offset="0.95" stop-color="#B89D0B"/>
<stop offset="1" stop-color="#A89100"/>
</linearGradient>
<linearGradient id="paint38_linear_35_11361" x1="-177879" y1="-149149" x2="-171357" y2="-145450" gradientUnits="userSpaceOnUse">
<stop offset="0.01" stop-color="#A89100"/>
<stop offset="0.08" stop-color="#BDA10F"/>
<stop offset="0.2" stop-color="#D9B824"/>
<stop offset="0.32" stop-color="#EEC933"/>
<stop offset="0.44" stop-color="#FBD33C"/>
<stop offset="0.56" stop-color="#FFD63F"/>
<stop offset="0.64" stop-color="#FAD23C"/>
<stop offset="0.74" stop-color="#EDC832"/>
<stop offset="0.85" stop-color="#D7B622"/>
<stop offset="0.95" stop-color="#B89D0B"/>
<stop offset="1" stop-color="#A89100"/>
</linearGradient>
<linearGradient id="paint39_linear_35_11361" x1="666141" y1="155965" x2="675713" y2="147058" gradientUnits="userSpaceOnUse">
<stop offset="0.16" stop-color="#F6C52F"/>
<stop offset="0.89" stop-color="#D49A00"/>
</linearGradient>
<linearGradient id="paint40_linear_35_11361" x1="-144636" y1="-60993.2" x2="-137121" y2="-57256.1" gradientUnits="userSpaceOnUse">
<stop offset="0.16" stop-color="#F6C52F"/>
<stop offset="0.89" stop-color="#D49A00"/>
</linearGradient>
<linearGradient id="paint41_linear_35_11361" x1="-28201.1" y1="-356887" x2="-28763.6" y2="-353406" gradientUnits="userSpaceOnUse">
<stop stop-color="#8C6034"/>
<stop offset="0.32" stop-color="#AE813F"/>
<stop offset="0.71" stop-color="#DCAE4E"/>
<stop offset="1" stop-color="#A67033"/>
</linearGradient>
<linearGradient id="paint42_linear_35_11361" x1="202281" y1="-109047" x2="201898" y2="-109698" gradientUnits="userSpaceOnUse">
<stop offset="0.01" stop-color="#FFF2A6"/>
<stop offset="1" stop-color="#CE8704"/>
</linearGradient>
</defs>
</svg>
